<?xml version="1.0" encoding="UTF-8"?>
<svg width="9px" height="5px" viewBox="0 0 9 5" version="1.1" xmlns="http://www.w3.org/2000/svg" xmlns:xlink="http://www.w3.org/1999/xlink">
    <!-- Generator: sketchtool 49.1 (51147) - http://www.bohemiancoding.com/sketch -->
    <title>2D8F0021-C03F-4D0A-895B-EF7E32948BC6</title>
    <desc>Created with sketchtool.</desc>
    <defs></defs>
    <g id="Page-1" stroke="none" stroke-width="1" fill="none" fill-rule="evenodd">
        <g id="4.2_Гострольные-проекты" transform="translate(-1241.000000, -35.000000)" fill="#474748">
            <g id="arrow_down" transform="translate(1241.000000, 35.000000)">
                <g id="ARROW__x2F__DOWN_1_">
                    <g id="ARROW__x2F__DOWN">
                        <path d="M8.35714286,0 C8.18378571,0 8.02671429,0.066875 7.911,0.175208333 L4.4985,3.4925 L1.13035714,0.217916667 C1.0125,0.0845833333 0.837857143,0 0.642857143,0 C0.287785714,0 0,0.279791667 0,0.625 C0,0.792708333 0.0681428571,0.945 0.178928571,1.05729167 C0.178928571,1.05729167 1.6108192,2.45274089 2.32762165,3.14963216 C2.89653348,3.70274089 4.03435714,4.80895833 4.03435714,4.80895833 C4.15157143,4.92666667 4.3155,5 4.49721429,5 C4.68214286,5 4.84564286,4.92666667 4.96285714,4.80875 L8.82021429,1.05895833 C8.93142857,0.946458333 9,0.793541667 9,0.625 C9,0.279791667 8.71221429,0 8.35714286,0 Z" id="Shape"></path>
                    </g>
                </g>
            </g>
        </g>
    </g>
</svg>