<svg xmlns="http://www.w3.org/2000/svg" width="10" height="11" viewBox="0 0 22.96 23.3"><g fill="#c3ccd5"><path d="M17.2,4.92A1.61,1.61,0,0,0,18.81,3.3V1.62a1.61,1.61,0,1,0-3.23,0V3.3A1.61,1.61,0,0,0,17.2,4.92Zm0,0"/><path d="M22.94,2.8H19.69v.82a2.46,2.46,0,0,1-4.92,0V2.8H8.2v.82a2.46,2.46,0,0,1-4.92,0V2.8L0,2.75V23.3H23ZM21.32,21.66H1.64V8.54H21.32Zm0,0"/><path d="M5.72,4.92A1.61,1.61,0,0,0,7.33,3.3V1.62a1.62,1.62,0,1,0-3.23,0V3.3A1.61,1.61,0,0,0,5.72,4.92Zm0,0"/><rect x="8.21" y="10.3" width="2.59" height="2.28"/><rect x="12.39" y="10.3" width="2.59" height="2.28"/><rect x="16.26" y="10.3" width="2.59" height="2.28"/><rect x="8.21" y="14.09" width="2.59" height="2.28"/><rect x="12.39" y="14.09" width="2.59" height="2.28"/><rect x="16.26" y="14.09" width="2.59" height="2.28"/><rect x="8.21" y="17.95" width="2.59" height="2.28"/><rect x="4.1" y="14.09" width="2.59" height="2.28"/><rect x="4.1" y="17.95" width="2.59" height="2.28"/><rect x="12.39" y="17.95" width="2.59" height="2.28"/><rect x="16.26" y="17.95" width="2.59" height="2.28"/></g></svg>